<svg height='40px' width='40px'  fill="#000000" xmlns="http://www.w3.org/2000/svg" xmlns:xlink="http://www.w3.org/1999/xlink" version="1.1" x="0px" y="0px" viewBox="0 0 100 100" enable-background="new 0 0 100 100" xml:space="preserve"><path fill="#000000" d="M86.457,27.933c1.831-1.595,2.995-3.937,2.995-6.55c0-4.794-3.9-8.694-8.694-8.694s-8.694,3.9-8.694,8.694  c0,4.794,3.9,8.695,8.694,8.695c2.688,0,11.463,0.418,11.463,5.798c0,2.269-1.304,4.873-11.463,4.873  c-10.16,0-11.463-2.604-11.463-4.873c0-2.362,1.658-4.044,4.932-5c0.71-0.208,1.116-0.95,0.909-1.66  c-0.207-0.71-0.946-1.12-1.66-0.91c-4.423,1.291-6.857,3.98-6.857,7.569c0,7.55,10.271,7.55,14.14,7.55c3.867,0,14.14,0,14.14-7.55  C94.897,31.835,91.826,29.04,86.457,27.933z M74.74,21.383c0-3.318,2.699-6.018,6.018-6.018s6.018,2.699,6.018,6.018  c0,3.319-2.699,6.018-6.018,6.018S74.74,24.702,74.74,21.383z"></path><path fill="#000000" d="M55.412,77.172c1.831-1.595,2.995-3.937,2.995-6.55c0-4.794-3.9-8.694-8.695-8.694  c-4.795,0-8.697,3.9-8.697,8.694s3.902,8.694,8.697,8.694c2.689,0,11.46,0.418,11.46,5.798c0,2.272-1.304,4.878-11.46,4.878  c-10.162,0-11.465-2.605-11.465-4.878c0-2.357,1.66-4.038,4.936-5c0.709-0.207,1.116-0.952,0.908-1.66  c-0.208-0.709-0.945-1.108-1.661-0.907c-4.423,1.297-6.859,3.983-6.859,7.567c0,7.556,10.274,7.556,14.142,7.556  c3.867,0,14.137,0,14.137-7.556C63.85,81.074,60.78,78.279,55.412,77.172z M43.692,70.622c0-3.317,2.701-6.018,6.021-6.018  c3.319,0,6.018,2.7,6.018,6.018s-2.699,6.018-6.018,6.018C46.393,76.64,43.692,73.939,43.692,70.622z"></path><path fill="#000000" d="M24.942,27.934c1.831-1.596,2.995-3.938,2.995-6.551c0-4.794-3.9-8.694-8.695-8.694  c-4.794,0-8.694,3.9-8.694,8.694c0,4.794,3.9,8.695,8.694,8.695c2.689,0,11.463,0.418,11.463,5.798  c0,2.269-1.303,4.873-11.463,4.873S7.779,38.145,7.779,35.875c0-2.362,1.659-4.044,4.932-5c0.71-0.208,1.116-0.95,0.91-1.66  c-0.209-0.71-0.953-1.12-1.66-0.91c-4.423,1.291-6.858,3.98-6.858,7.569c0,7.55,10.272,7.55,14.14,7.55s14.14,0,14.14-7.55  C33.382,31.835,30.312,29.04,24.942,27.934z M13.225,21.383c0-3.318,2.699-6.018,6.018-6.018c3.319,0,6.018,2.699,6.018,6.018  c0,3.319-2.699,6.018-6.018,6.018C15.924,27.401,13.225,24.702,13.225,21.383z"></path><g><g><path fill="#000000" d="M49.231,46.938"></path></g><g><path fill="#000000" d="M30.058,81.476c-0.228,0-0.458-0.058-0.669-0.18C17.135,74.203,9.523,61.039,9.523,46.938    c0-0.74,0.599-1.338,1.338-1.338s1.338,0.599,1.338,1.338c0,13.148,7.1,25.425,18.53,32.041c0.639,0.371,0.859,1.189,0.488,1.827    C30.969,81.235,30.521,81.476,30.058,81.476z"></path></g><g><path fill="#000000" d="M68.402,81.476c-0.463,0-0.911-0.24-1.159-0.669c-0.372-0.638-0.152-1.456,0.487-1.827    c11.428-6.614,18.527-18.893,18.53-32.041c0-0.74,0.6-1.338,1.338-1.338l0,0c0.74,0,1.339,0.6,1.339,1.338    c-0.003,14.101-7.615,27.268-19.866,34.357C68.859,81.418,68.63,81.476,68.402,81.476z"></path></g><g><path fill="#000000" d="M68.881,15.365c-0.234,0-0.471-0.062-0.687-0.189c-11.211-6.714-25.705-6.891-37-0.566    c-0.647,0.361-1.46,0.129-1.822-0.515c-0.361-0.646-0.131-1.46,0.515-1.822c12.119-6.781,27.664-6.59,39.682,0.605    c0.634,0.38,0.841,1.203,0.461,1.836C69.779,15.134,69.335,15.365,68.881,15.365z"></path></g></g></svg>